<?xml version="1.0" standalone="no"?>
<!DOCTYPE svg PUBLIC "-//W3C//DTD SVG 20010904//EN"
 "http://www.w3.org/TR/2001/REC-SVG-20010904/DTD/svg10.dtd">
<svg version="1.0" xmlns="http://www.w3.org/2000/svg"
 width="1280.000000pt" height="1280.000000pt" viewBox="0 0 1280.000000 1280.000000"
 preserveAspectRatio="xMidYMid meet">
<metadata>
Created by potrace 1.15, written by Peter Selinger 2001-2017
</metadata>
<g transform="translate(0.000000,1280.000000) scale(0.100000,-0.100000)"
fill="#ff6f00" stroke="none">
<path d="M3606 11123 c-234 -50 -424 -202 -499 -398 l-22 -60 -3 -4202 -2
-4203 -440 0 -440 0 0 -630 0 -630 3670 0 3670 0 0 630 0 630 -410 0 -410 0 0
2270 0 2270 371 0 371 0 -8 -302 c-5 -167 -8 -834 -8 -1483 -1 -1220 10 -1676
40 -1791 53 -205 223 -342 494 -400 101 -21 332 -24 455 -5 348 54 604 200
703 400 l37 75 5 2065 5 2065 87 46 c48 25 90 49 94 52 3 4 -4 33 -17 65 -21
55 -23 76 -29 433 -8 398 -14 457 -65 619 -109 343 -389 599 -837 765 -105 39
-324 101 -391 111 l-43 7 -42 -184 c-23 -100 -42 -188 -42 -194 0 -5 44 -20
98 -33 228 -54 454 -144 591 -236 l70 -47 -35 -48 c-78 -109 -146 -310 -175
-520 -20 -140 -17 -479 4 -615 63 -402 213 -634 397 -612 l50 6 0 -1835 c0
-2075 9 -1873 -84 -1947 -257 -204 -834 -233 -1008 -50 -50 53 -56 82 -70 369
-16 352 -16 2560 1 3104 7 211 13 388 14 392 1 5 -231 8 -515 8 l-518 0 -2
1792 -3 1793 -22 57 c-77 202 -267 353 -505 402 -69 14 -311 16 -2295 15
-1923 -1 -2227 -3 -2287 -16z"/>
</g>
</svg>
